<svg id="Layer_1" enable-background="new 0 0 468 468" viewBox="0 0 468 468" xmlns="http://www.w3.org/2000/svg"><g><path d="m342.964 239.6c11.758 7.468 26.512 7.749 38.503.732 23.601-13.805 35.555-29.404 35.532-46.366-.018-12.664-6.27-21.6-10.834-28.124-26.902-38.457-60.738-70.626-91.488-105.8l24.961-41.606c2.928-6.961.919-11.904-6.029-14.829-23.029-6.023-42.514-3.781-57.931 1.434-14.09-1.286-27.709-2.152-40.504-2.566-119.2-3.806-168.576 81.423-183.629 185.121-4.291 29.564 17.258 58.865 46.803 63.472 4.933 47.468 19.244 93.207 3.505 140.36h-23.926c-5.509 0-9.974 4.477-9.974 9.999v56.575c0 5.522 4.465 9.999 9.974 9.999h296.153c5.509 0 9.974-4.477 9.974-9.999v-56.575c0-5.522-4.465-9.999-9.974-9.999h-24.123c3.185-26.522-2.041-57.427-14.925-86.773-17.83-40.608-64.1-51.925-70.833-99.614 9.126 2.837 19.441 4.23 30.847 4.128zm-271.678-49.123c16.827-93.471 52.84-171.546 163.247-168.012 3.076.1 6.206.228 9.377.38-2.544 2.114-4.566 4.011-6.037 5.482-106.802 13.071-147.025 102.198-141.226 201.897-6.514-1.951-29.9-14.533-25.361-39.747zm292.82 257.525h-276.205v-36.577h276.205zm-106.02-267.551c-15.018-10.037-22.439-29.779-20.555-47.465.627-5.487-3.301-10.444-8.774-11.072-5.479-.643-10.417 3.309-11.044 8.795-.198 1.733-4.289 40.952 25.346 63.59 4.209 60.456 52.787 70.748 73.715 118.411 11.889 27.078 16.506 55.273 13.072 78.717h-207.107c8.207-28.377 8.854-58.53 3.753-87.528-19.298-105.672-18.147-241.638 117.192-256.111 2.556-.273 4.908-1.525 6.566-3.495.261-.311 24.115-27.988 64.874-23.796l-21.277 35.466c-2.221 3.702-1.819 8.414.994 11.684 31.587 36.716 67.107 69.814 94.993 109.677 4.221 6.034 7.21 10.761 7.218 16.668.016 11.619-13.933 22.22-25.638 29.067-5.529 3.232-12.339 3.098-17.774-.353l-50.451-32.04c-1.685-1.07-3.651-1.6-5.643-1.548-16.412.509-29.688-2.411-39.46-8.667z"/><path d="m306.356 121.845c3.181-3.058 3.286-8.121.237-11.31l-7.548-7.891c-3.05-3.189-8.1-3.294-11.282-.237-3.181 3.058-3.286 8.121-.237 11.31l7.548 7.891c3.728 3.202 7.489 3.282 11.282.237z"/></g><g/><g/><g/><g/><g/><g/><g/><g/><g/><g/><g/><g/><g/><g/><g/></svg>