<svg id="Capa_1" enable-background="new 0 0 512 512" height="512" viewBox="0 0 512 512" width="512" xmlns="http://www.w3.org/2000/svg"><g><path d="m480.452 0h-448.904c-17.396 0-31.548 14.152-31.548 31.548v448.903c0 17.397 14.152 31.549 31.548 31.549h448.903c17.397 0 31.549-14.152 31.549-31.548v-448.904c0-17.396-14.152-31.548-31.548-31.548zm-465.452 180.667h150.667v150.667h-150.667zm165.667 0h150.667v150.667h-150.667zm165.666 0h150.667v150.667h-150.667zm150.667-149.119v134.118h-150.667v-91.9c0-4.142-3.358-7.5-7.5-7.5s-7.5 3.358-7.5 7.5v91.9h-150.666v-150.666h150.667v25.633c0 4.142 3.358 7.5 7.5 7.5s7.5-3.358 7.5-7.5v-25.633h134.118c9.125 0 16.548 7.423 16.548 16.548zm-465.452-16.548h134.118v150.667h-150.666v-134.119c0-9.125 7.423-16.548 16.548-16.548zm-16.548 465.452v-134.119h150.667v91.9c0 4.142 3.358 7.5 7.5 7.5s7.5-3.358 7.5-7.5v-91.9h150.667v150.667h-150.667v-25.633c0-4.142-3.358-7.5-7.5-7.5s-7.5 3.358-7.5 7.5v25.633h-134.119c-9.125 0-16.548-7.423-16.548-16.548zm465.452 16.548h-134.119v-150.667h150.667v134.118c0 9.126-7.423 16.549-16.548 16.549z"/><path d="m277.226 43.487h-43.012c-4.142 0-7.5 3.358-7.5 7.5s3.358 7.5 7.5 7.5h31.522l-29.745 67.667c-1.667 3.792.056 8.217 3.848 9.884.982.432 2.006.636 3.014.636 2.884 0 5.635-1.674 6.87-4.484l34.369-78.185c1.02-2.319.799-4.996-.585-7.118s-3.748-3.4-6.281-3.4z"/><path d="m112.522 452.458c-8.986.113-18.603.178-25.963.179 4.409-5.85 10.93-14.68 20.189-27.91 4.896-6.995 8.083-13.583 9.474-19.58.057-.246.102-.494.133-.744l.386-3.024c.041-.315.061-.632.061-.95 0-15.167-12.339-27.506-27.506-27.506-13.114 0-24.465 9.329-26.99 22.183-.798 4.064 1.85 8.006 5.914 8.805 4.064.795 8.007-1.85 8.805-5.914 1.146-5.837 6.307-10.074 12.271-10.074 6.755 0 12.276 5.383 12.499 12.084l-.268 2.093c-1.006 4.043-3.383 8.76-7.069 14.026-12.401 17.719-19.803 27.41-23.779 32.617-4.88 6.39-6.707 8.781-5.401 13.024.756 2.46 2.625 4.349 5.123 5.182 1.009.336 2.113.705 17.134.705 5.935 0 14.043-.058 25.175-.197 4.142-.052 7.457-3.452 7.405-7.594s-3.473-7.424-7.593-7.405z"/><path d="m274.181 246.466c3.459-4.157 5.543-9.498 5.543-15.316 0-13.224-10.759-23.983-23.983-23.983s-23.983 10.759-23.983 23.983c0 5.819 2.084 11.158 5.543 15.316-7.093 5.513-11.669 14.118-11.669 23.776 0 16.603 13.507 30.109 30.109 30.109s30.109-13.507 30.109-30.109c0-9.658-4.576-18.263-11.669-23.776zm-27.423-15.316c0-4.953 4.03-8.983 8.983-8.983s8.983 4.03 8.983 8.983c0 4.954-4.03 8.983-8.983 8.983s-8.983-4.029-8.983-8.983zm8.983 54.202c-8.332 0-15.109-6.778-15.109-15.109s6.778-15.109 15.109-15.109 15.109 6.778 15.109 15.109-6.778 15.109-15.109 15.109z"/><path d="m432.273 256 27.83-27.83c2.929-2.929 2.929-7.678 0-10.606-2.929-2.929-7.678-2.929-10.606 0l-27.83 27.83-27.83-27.83c-2.929-2.929-7.678-2.929-10.606 0-2.929 2.929-2.929 7.678 0 10.606l27.829 27.83-27.83 27.83c-2.929 2.929-2.929 7.678 0 10.606 1.464 1.464 3.384 2.197 5.303 2.197s3.839-.732 5.303-2.197l27.83-27.83 27.83 27.83c1.464 1.464 3.384 2.197 5.303 2.197s3.839-.732 5.303-2.197c2.929-2.929 2.929-7.678 0-10.606z"/></g></svg>